# xmcd
#
# Track frame offsets:
#	150
#	56155
#	107793
#	176429
#	190546
#	241030
#	282503
#
# Disc length: 4031 seconds
#
# Revision: 1
# Processed by: cddbd v1.5.2PL0 Copyright (c) Steve Scherf et al.
# Submitted via: audiograbber 1.83.01
#
DISCID=5a0fbd07
DTITLE=Grateful Dead - 78-12-17 Fox Theatre, Atlanta GA
DYEAR=1900
DGENRE=
TTITLE0=Estimated Prophet
TTITLE1=Eyes Of The World
TTITLE2=Drums
TTITLE3=Ollin Arageed Jam
TTITLE4=Shakedown Street
TTITLE5=Sugar Magnolia
TTITLE6=Johnny B Goode
EXTD=
EXTT0=
EXTT1=
EXTT2=
EXTT3=
EXTT4=
EXTT5=
EXTT6=
PLAYORDER=
